<?xml version="1.0" encoding="UTF-8" standalone="no"?>
<!-- Created with Inkscape (http://www.inkscape.org/) -->

<svg
   xmlns:dc="http://purl.org/dc/elements/1.1/"
   xmlns:cc="http://creativecommons.org/ns#"
   xmlns:rdf="http://www.w3.org/1999/02/22-rdf-syntax-ns#"
   xmlns:svg="http://www.w3.org/2000/svg"
   xmlns="http://www.w3.org/2000/svg"
   xmlns:sodipodi="http://sodipodi.sourceforge.net/DTD/sodipodi-0.dtd"
   xmlns:inkscape="http://www.inkscape.org/namespaces/inkscape"
   width="569.08978"
   height="541.53571"
   id="svg2"
   version="1.1"
   inkscape:version="0.48.2 r9819"
   sodipodi:docname="brc.svg">
  <defs
     id="defs4" />
  <sodipodi:namedview
     id="base"
     pagecolor="#ffffff"
     bordercolor="#666666"
     borderopacity="1.0"
     inkscape:pageopacity="0.0"
     inkscape:pageshadow="2"
     inkscape:zoom="2"
     inkscape:cx="193.97826"
     inkscape:cy="471.88607"
     inkscape:document-units="px"
     inkscape:current-layer="layer1"
     showgrid="false"
     inkscape:snap-global="false"
     inkscape:window-width="1231"
     inkscape:window-height="756"
     inkscape:window-x="49"
     inkscape:window-y="0"
     inkscape:window-maximized="1"
     showguides="true"
     inkscape:guide-bbox="true"
     fit-margin-top="0"
     fit-margin-left="0"
     fit-margin-right="0"
     fit-margin-bottom="0" />
  <metadata
     id="metadata7">
    <rdf:RDF>
      <cc:Work
         rdf:about="">
        <dc:format>image/svg+xml</dc:format>
        <dc:type
           rdf:resource="http://purl.org/dc/dcmitype/StillImage" />
        <dc:title></dc:title>
      </cc:Work>
    </rdf:RDF>
  </metadata>
  <g
     inkscape:label="Layer 1"
     inkscape:groupmode="layer"
     id="layer1"
     transform="translate(68.275685,-403.64904)">
    <g
       id="g4227">
      <path
         sodipodi:nodetypes="ccccccccccsccccccsccccssscccc"
         inkscape:connector-curvature="0"
         id="path3778"
         d="m 308.94264,647.33514 c 8.99187,15.48268 14.34046,33.45303 14.66783,52.44045 l -15.91273,-3.0649 c -0.76778,-14.80893 -5.55622,-29.15739 -12.64221,-41.34103 m -173.84868,-7.95168 c -9.12794,15.60377 -14.48822,33.67982 -14.83266,52.98013 m 1.5e-4,3.97464 c 0.89252,49.82922 35.21911,91.49735 81.4983,103.52289 m 55.23583,-0.0834 c 46.34274,-11.8533 79.50621,-53.24047 80.15249,-103.32562 l -16.10462,2.73077 c -0.92334,22.08254 -9.74774,41.55887 -23.41265,56.85254 l 8.63133,14.83698 m -0.35745,0.58033 -14.83552,-8.48966 c -10.82737,9.83128 -25.18181,17.78597 -39.85185,21.62685 m -43.66348,-0.47755 c -14.31192,-3.8816 -42.05583,-19.99228 -40.19819,-21.02049 l -15.25211,8.44191 m -3.1004,-123.39812 c -7.05818,12.23944 -11.39878,26.24364 -12.19738,41.18827 l -20.75655,3.58781 c -0.43247,-2.27493 -2.464868,-4.03129 -4.9073,-4.03129 -2.753473,0 -4.985554,2.23213 -4.985554,4.98554 0,2.75341 2.232081,4.98553 4.985554,4.98553 2.304821,0 4.37061,-1.05895 4.92679,-3.32083 l 20.80326,3.47747 c 1.16245,21.68349 9.71831,41.76526 23.27555,56.96937 l -8.04146,15.11424"
         style="fill:none;stroke:#000000;stroke-width:1;stroke-miterlimit:4;stroke-opacity:1;stroke-dasharray:none" />
      <path
         sodipodi:nodetypes="csccsc"
         inkscape:connector-curvature="0"
         id="path3782"
         d="m 324.2493,638.22573 c 10.84849,18.61857 17.69103,41.25924 17.69103,64.33444 0,58.78429 -39.90354,108.09972 -94.49996,122.22047 m -64.65465,-0.0627 C 128.00427,810.72331 88.139863,761.47506 88.139863,702.55999 c 0,-23.46736 6.424111,-45.44051 17.616797,-64.27102"
         style="fill:none;stroke:#000000;stroke-width:1;stroke-miterlimit:4;stroke-opacity:1;stroke-dasharray:none" />
      <path
         sodipodi:nodetypes="csssc"
         inkscape:connector-curvature="0"
         id="path3790"
         d="m 331.91362,633.95751 c 11.8851,20.07436 18.95644,43.60821 18.95644,68.60272 0,74.53705 -60.64075,134.96124 -135.4449,134.96124 -74.80416,0 -135.444903,-60.42419 -135.444903,-134.96124 0,-24.73363 6.677192,-47.91321 18.333468,-67.84675"
         style="fill:none;stroke:#000000;stroke-width:1;stroke-miterlimit:4;stroke-opacity:1;stroke-dasharray:none" />
      <path
         sodipodi:nodetypes="csssc"
         inkscape:connector-curvature="0"
         id="path3792"
         d="m 339.72421,629.34185 c 12.45415,21.32769 19.71583,46.38812 19.71583,72.86118 0,79.69053 -64.65877,144.29244 -144.41942,144.29244 -79.76065,0 -144.419423,-64.60191 -144.419423,-144.29244 0,-26.54507 7.174283,-51.41586 19.691374,-72.78253"
         style="fill:none;stroke:#000000;stroke-width:1;stroke-miterlimit:4;stroke-opacity:1;stroke-dasharray:none" />
      <path
         sodipodi:nodetypes="csccccccsc"
         inkscape:connector-curvature="0"
         id="path3794"
         d="m 362.55267,662.30936 c 3.51055,12.93696 5.39805,27.55256 5.39805,41.50142 0,13.10786 -1.76605,26.33671 -4.85119,38.48126 m -14.78564,37.3064 c -13.17642,23.40722 -34.03245,44.85162 -56.48552,57.76141 M 138.25972,835.56412 C 114.87894,821.72854 96.132667,802.3187 82.626172,778.31758 M 67.519225,742.45044 c -3.131877,-12.23044 -5.428806,-25.4294 -5.428806,-38.63966 0,-14.18803 1.921244,-27.92609 5.516923,-40.96687"
         style="fill:none;stroke:#000000;stroke-width:1;stroke-miterlimit:4;stroke-opacity:1;stroke-dasharray:none" />
      <path
         sodipodi:nodetypes="csccsccsc"
         inkscape:connector-curvature="0"
         id="path3800"
         d="m 354.73815,621.00556 c 13.67239,23.75614 21.36919,52.33397 21.36919,81.73399 0,42.91552 -15.82501,81.41564 -42.90899,110.23031 m -6.89055,7.16214 c -28.93694,27.65832 -68.33444,44.32936 -111.46583,44.32936 -43.57749,0 -81.91382,-16.36243 -110.78493,-44.408 m -6.971826,-7.04418 C 70.124834,784.10257 53.576599,745.4423 53.576599,702.73955 c 0,-29.78004 8.026585,-57.68002 22.028443,-81.64297"
         style="fill:none;stroke:#000000;stroke-width:0.99999994;stroke-miterlimit:4;stroke-opacity:1;stroke-dasharray:none" />
      <path
         sodipodi:nodetypes="csssc"
         inkscape:connector-curvature="0"
         id="path3802"
         d="m 362.64881,616.82299 c 14.56973,25.18784 23.03772,54.70145 23.03772,85.91638 0,94.42407 -76.32977,170.96986 -170.48732,170.96986 -94.15755,0 -170.487325,-76.54579 -170.487325,-170.96986 0,-31.49149 8.490186,-60.99444 23.300332,-86.33244"
         style="fill:none;stroke:#000000;stroke-width:1;stroke-miterlimit:4;stroke-opacity:1;stroke-dasharray:none" />
      <path
         sodipodi:nodetypes="csssc"
         inkscape:connector-curvature="0"
         id="path3804"
         d="m 370.74038,612.61386 c 15.38271,26.53257 23.8135,56.86609 23.8135,89.76817 0,99.33518 -80.29978,179.86221 -179.35459,179.86221 -99.0548,0 -179.35458,-80.52703 -179.35458,-179.86221 0,-32.89099 8.803621,-63.72009 24.17677,-90.24654"
         style="fill:none;stroke:#000000;stroke-width:0.99999994;stroke-miterlimit:4;stroke-opacity:1;stroke-dasharray:none" />
      <path
         sodipodi:nodetypes="csssc"
         inkscape:connector-curvature="0"
         id="path3806"
         d="m 378.38286,608.10538 c 15.99069,27.78112 25.39291,59.89415 25.39291,94.27657 0,104.44274 -84.42859,189.11026 -188.57654,189.11026 -104.14795,0 -188.576535,-84.66752 -188.576535,-189.11026 0,-34.54475 9.236306,-66.92616 25.367459,-94.79602"
         style="fill:none;stroke:#000000;stroke-width:1;stroke-miterlimit:4;stroke-opacity:1;stroke-dasharray:none" />
      <path
         sodipodi:nodetypes="csssc"
         inkscape:connector-curvature="0"
         id="path3810"
         d="m 393.71215,599.44151 c 17.67756,30.39485 27.79996,65.08212 27.79996,102.76163 0,113.87177 -92.44937,206.18302 -206.49145,206.18302 -114.04209,0 -206.491454,-92.31125 -206.491454,-206.18302 0,-37.81031 10.192755,-73.24357 27.984415,-103.70959"
         style="fill:none;stroke:#000000;stroke-width:0.99999988;stroke-miterlimit:4;stroke-opacity:1;stroke-dasharray:none" />
      <path
         inkscape:connector-curvature="0"
         id="path3844"
         d="m 295.32143,655.6479 98.39286,-56.25 0,0"
         style="fill:none;stroke:#000000;stroke-width:1;stroke-linecap:butt;stroke-linejoin:miter;stroke-miterlimit:4;stroke-opacity:1;stroke-dasharray:none" />
      <path
         inkscape:connector-curvature="0"
         id="path3846"
         d="M 304.78571,678.1479 414.42857,648.86218"
         style="fill:none;stroke:#000000;stroke-width:1;stroke-linecap:butt;stroke-linejoin:miter;stroke-miterlimit:4;stroke-opacity:1;stroke-dasharray:none" />
      <path
         sodipodi:nodetypes="cccc"
         inkscape:connector-curvature="0"
         id="path3848"
         d="m 342.13201,702.27991 66.42097,0.25739 m 7.99885,0.0303 4.90724,0.0197"
         style="fill:none;stroke:#000000;stroke-width:1.04973185;stroke-linecap:butt;stroke-linejoin:miter;stroke-miterlimit:4;stroke-opacity:1;stroke-dasharray:none" />
      <path
         inkscape:connector-curvature="0"
         id="path3850"
         d="m 376.03571,723.32647 44.10715,6.25"
         style="fill:none;stroke:#000000;stroke-width:1;stroke-linecap:butt;stroke-linejoin:miter;stroke-miterlimit:4;stroke-opacity:1;stroke-dasharray:none" />
      <path
         inkscape:connector-curvature="0"
         id="path3852"
         d="M 414.96429,755.82647 305.5,726.54075"
         style="fill:none;stroke:#000000;stroke-width:1;stroke-linecap:butt;stroke-linejoin:miter;stroke-miterlimit:4;stroke-opacity:1;stroke-dasharray:none" />
      <path
         inkscape:connector-curvature="0"
         id="path3854"
         d="m 364.96429,764.21932 40.89285,16.96429"
         style="fill:none;stroke:#000000;stroke-width:1;stroke-linecap:butt;stroke-linejoin:miter;stroke-miterlimit:4;stroke-opacity:1;stroke-dasharray:none" />
      <path
         inkscape:connector-curvature="0"
         id="path3856"
         d="m 393.71429,806.00504 -98.75,-57.5"
         style="fill:none;stroke:#000000;stroke-width:1;stroke-linecap:butt;stroke-linejoin:miter;stroke-miterlimit:4;stroke-opacity:1;stroke-dasharray:none" />
      <path
         sodipodi:nodetypes="cc"
         inkscape:connector-curvature="0"
         id="path3858"
         d="m 291.75,779.04075 34.58431,34.04321"
         style="fill:none;stroke:#000000;stroke-width:1;stroke-linecap:butt;stroke-linejoin:miter;stroke-miterlimit:4;stroke-opacity:1;stroke-dasharray:none" />
      <path
         inkscape:connector-curvature="0"
         id="path3860"
         d="m 332.82143,820.29075 28.57143,27.67858"
         style="fill:none;stroke:#000000;stroke-width:1;stroke-linecap:butt;stroke-linejoin:miter;stroke-miterlimit:4;stroke-opacity:1;stroke-dasharray:none" />
      <path
         inkscape:connector-curvature="0"
         id="path3862"
         d="M 313.89286,831.00504 340.5,865.82647"
         style="fill:none;stroke:#000000;stroke-width:1;stroke-linecap:butt;stroke-linejoin:miter;stroke-miterlimit:4;stroke-opacity:1;stroke-dasharray:none" />
      <path
         inkscape:connector-curvature="0"
         id="path3864"
         d="M 317.82143,880.82647 261.39286,782.96932"
         style="fill:none;stroke:#000000;stroke-width:1;stroke-linecap:butt;stroke-linejoin:miter;stroke-miterlimit:4;stroke-opacity:1;stroke-dasharray:none" />
      <path
         sodipodi:nodetypes="cc"
         inkscape:connector-curvature="0"
         id="path3866"
         d="M 273.48214,919.11218 243.00893,807.60325"
         style="fill:none;stroke:#000000;stroke-width:1;stroke-linecap:butt;stroke-linejoin:miter;stroke-miterlimit:4;stroke-opacity:1;stroke-dasharray:none" />
      <path
         inkscape:connector-curvature="0"
         id="path3868"
         d="m 277.28571,851.54075 16.78572,41.42858"
         style="fill:none;stroke:#000000;stroke-width:1;stroke-linecap:butt;stroke-linejoin:miter;stroke-miterlimit:4;stroke-opacity:1;stroke-dasharray:none" />
      <path
         inkscape:connector-curvature="0"
         id="path3870"
         d="m 236.57143,863.1479 5,43.75"
         style="fill:none;stroke:#000000;stroke-width:1;stroke-linecap:butt;stroke-linejoin:miter;stroke-miterlimit:4;stroke-opacity:1;stroke-dasharray:none" />
      <path
         sodipodi:nodetypes="cc"
         inkscape:connector-curvature="0"
         id="path3872"
         d="m 214.78571,837.61218 0.17858,58.57143"
         style="fill:none;stroke:#000000;stroke-width:1;stroke-linecap:butt;stroke-linejoin:miter;stroke-miterlimit:4;stroke-opacity:1;stroke-dasharray:none" />
      <path
         inkscape:connector-curvature="0"
         id="path3874"
         d="m 215.14286,908.86218 -0.17857,-5.17857"
         style="fill:none;stroke:#000000;stroke-width:1;stroke-linecap:butt;stroke-linejoin:miter;stroke-miterlimit:4;stroke-opacity:1;stroke-dasharray:none" />
      <path
         inkscape:connector-curvature="0"
         id="path3876"
         d="m 188.35714,906.8979 5.35715,-44.10715"
         style="fill:none;stroke:#000000;stroke-width:1;stroke-linecap:butt;stroke-linejoin:miter;stroke-miterlimit:4;stroke-opacity:1;stroke-dasharray:none" />
      <path
         sodipodi:nodetypes="cc"
         inkscape:connector-curvature="0"
         id="path3878"
         d="M 156.67857,919.96933 187.25893,807.65682"
         style="fill:none;stroke:#000000;stroke-width:1;stroke-linecap:butt;stroke-linejoin:miter;stroke-miterlimit:4;stroke-opacity:1;stroke-dasharray:none" />
      <path
         sodipodi:nodetypes="cc"
         inkscape:connector-curvature="0"
         id="path3880"
         d="m 169.50978,781.72471 -57.40264,99.28033"
         style="fill:none;stroke:#000000;stroke-width:1;stroke-linecap:butt;stroke-linejoin:miter;stroke-miterlimit:4;stroke-opacity:1;stroke-dasharray:none" />
      <path
         inkscape:connector-curvature="0"
         id="path3882"
         d="M 89.428571,866.54075 116.75,830.82647"
         style="fill:none;stroke:#000000;stroke-width:1;stroke-linecap:butt;stroke-linejoin:miter;stroke-miterlimit:4;stroke-opacity:1;stroke-dasharray:none" />
      <path
         inkscape:connector-curvature="0"
         id="path3884"
         d="M 68.892857,848.68361 97.464286,819.75504"
         style="fill:none;stroke:#000000;stroke-width:1;stroke-linecap:butt;stroke-linejoin:miter;stroke-miterlimit:4;stroke-opacity:1;stroke-dasharray:none" />
      <path
         inkscape:connector-curvature="0"
         id="path3886"
         d="M 104.25,812.96932 138.53571,779.3979"
         style="fill:none;stroke:#000000;stroke-width:1;stroke-linecap:butt;stroke-linejoin:miter;stroke-miterlimit:4;stroke-opacity:1;stroke-dasharray:none" />
      <path
         inkscape:connector-curvature="0"
         id="path3888"
         d="M 51.035714,828.1479 86.571429,801.71932"
         style="fill:none;stroke:#000000;stroke-width:1;stroke-linecap:butt;stroke-linejoin:miter;stroke-miterlimit:4;stroke-opacity:1;stroke-dasharray:none" />
      <path
         inkscape:connector-curvature="0"
         id="path3890"
         d="M 135.14286,748.68361 35.857143,805.6479"
         style="fill:none;stroke:#000000;stroke-width:1;stroke-linecap:butt;stroke-linejoin:miter;stroke-miterlimit:4;stroke-opacity:1;stroke-dasharray:none" />
      <path
         inkscape:connector-curvature="0"
         id="path3892"
         d="M 24.071428,781.18361 65.678571,764.75504"
         style="fill:none;stroke:#000000;stroke-width:1;stroke-linecap:butt;stroke-linejoin:miter;stroke-miterlimit:4;stroke-opacity:1;stroke-dasharray:none" />
      <path
         inkscape:connector-curvature="0"
         id="path3894"
         d="M 15.5,755.6479 125.85714,726.54075"
         style="fill:none;stroke:#000000;stroke-width:1;stroke-linecap:butt;stroke-linejoin:miter;stroke-miterlimit:4;stroke-opacity:1;stroke-dasharray:none" />
      <path
         inkscape:connector-curvature="0"
         id="path3896"
         d="m 9.785714,728.86218 45.178572,-4.82143"
         style="fill:none;stroke:#000000;stroke-width:1;stroke-linecap:butt;stroke-linejoin:miter;stroke-miterlimit:4;stroke-opacity:1;stroke-dasharray:none" />
      <path
         sodipodi:nodetypes="cc"
         inkscape:connector-curvature="0"
         id="path3898"
         d="m 8.535714,702.61218 5.946429,-0.009"
         style="fill:none;stroke:#000000;stroke-width:1;stroke-linecap:butt;stroke-linejoin:miter;stroke-miterlimit:4;stroke-opacity:1;stroke-dasharray:none" />
      <path
         inkscape:connector-curvature="0"
         id="path3900"
         d="m 21.75,702.61218 70.892857,-0.17857"
         style="fill:none;stroke:#000000;stroke-width:1;stroke-linecap:butt;stroke-linejoin:miter;stroke-miterlimit:4;stroke-opacity:1;stroke-dasharray:none" />
      <path
         inkscape:connector-curvature="0"
         id="path3902"
         d="m 10.321428,675.46932 44.464286,5.89286"
         style="fill:none;stroke:#000000;stroke-width:1;stroke-linecap:butt;stroke-linejoin:miter;stroke-miterlimit:4;stroke-opacity:1;stroke-dasharray:none" />
      <path
         inkscape:connector-curvature="0"
         id="path3904"
         d="M 15.678571,648.68361 125.67857,678.50504"
         style="fill:none;stroke:#000000;stroke-width:1;stroke-linecap:butt;stroke-linejoin:miter;stroke-miterlimit:4;stroke-opacity:1;stroke-dasharray:none" />
      <path
         inkscape:connector-curvature="0"
         id="path3906"
         d="m 24.25,623.1479 41.964286,18.03571"
         style="fill:none;stroke:#000000;stroke-width:1;stroke-linecap:butt;stroke-linejoin:miter;stroke-miterlimit:4;stroke-opacity:1;stroke-dasharray:none" />
      <path
         inkscape:connector-curvature="0"
         id="path3908"
         d="m 36.035714,598.86218 98.928576,57.32143"
         style="fill:none;stroke:#000000;stroke-width:1;stroke-linecap:butt;stroke-linejoin:miter;stroke-miterlimit:4;stroke-opacity:1;stroke-dasharray:none" />
      <path
         sodipodi:nodetypes="ccssscccccccccc"
         inkscape:connector-curvature="0"
         d="m 323.3125,704.5095 4.97212,-0.81468 c 0.77598,1.9003 3.0234,2.53296 4.64822,2.44979 2.62987,-0.13462 4.20431,-1.98148 4.28323,-4.42529 0.0896,-2.77381 -2.66763,-4.78637 -4.70939,-4.59891 -1.93157,0.17734 -3.60617,1.11361 -4.36821,3.41669 l -4.46883,-0.78206 m -7.27522,-56.73673 c 9.41853,16.04706 14.89082,32.43198 15.78547,52.22315 m 0.11549,11.29336 c -2.00571,52.65459 -38.34344,97.07442 -87.37638,110.12251 m -59.74738,-0.0492 C 135.64942,803.93494 99.370128,760.10822 97.501823,707.09155 m 0.04931,-9.65901 c 0.893911,-19.64292 6.603957,-38.03047 15.977027,-54.00944"
         style="fill:none;stroke:#000000;stroke-width:1;stroke-linecap:butt;stroke-linejoin:miter;stroke-miterlimit:4;stroke-opacity:1;stroke-dasharray:none"
         id="path3921" />
      <path
         transform="matrix(0.98554353,0,0,0.89546689,96.85144,72.891865)"
         d="m -76.294642,703.0318 c 0,2.29297 -1.688926,4.15179 -3.772321,4.15179 -2.083396,0 -3.772322,-1.85882 -3.772322,-4.15179 0,-2.29297 1.688926,-4.15179 3.772322,-4.15179 2.083395,0 3.772321,1.85882 3.772321,4.15179 z"
         sodipodi:ry="4.1517859"
         sodipodi:rx="3.7723215"
         sodipodi:cy="703.0318"
         sodipodi:cx="-80.066963"
         id="path3929"
         style="fill:none;stroke:#000000;stroke-width:1;stroke-linecap:round;stroke-linejoin:round;stroke-miterlimit:4;stroke-opacity:1;stroke-dasharray:none"
         sodipodi:type="arc" />
      <path
         sodipodi:nodetypes="sscsscccccccc"
         inkscape:connector-curvature="0"
         d="m 416.18607,702.38286 c 0,2.00702 -1.68637,3.63403 -3.76661,3.63403 -2.08024,0 -3.7666,-1.62701 -3.7666,-3.63403 0,-2.00702 1.68636,-3.63402 3.7666,-3.63402 2.08024,0 3.76661,1.627 3.76661,3.63402 z m -29.73003,-98.7393 c 16.11443,27.98251 25.29212,60.67047 25.89373,95.13679 m -0.0533,7.20502 C 410.12006,811.69998 325.02914,897.15889 219.22346,899.2755 m -7.99762,0.43843 C 105.54589,897.51175 20.057722,811.90206 17.801781,706.31807 m 0.07992,-7.85672 c 0.630115,-34.65176 10.106356,-67.21078 26.410086,-95.29259"
         style="fill:none;stroke:#000000;stroke-width:0.93559879;stroke-linecap:round;stroke-linejoin:round;stroke-miterlimit:4;stroke-opacity:1"
         id="path3931" />
      <path
         sodipodi:nodetypes="cssssccssscc"
         inkscape:connector-curvature="0"
         id="path3935"
         d="m 207.96188,782.90364 c -11.91466,3.18951 -20.68835,14.06095 -20.68835,26.9816 0,15.42499 12.50443,27.92942 27.92943,27.92942 9.20194,0 17.36451,-4.45014 22.45297,-11.3157 3.44118,-4.643 5.47644,-10.39068 5.47644,-16.61372 0,-12.75431 -9.25634,-24.08636 -20.85341,-27.34849 l -3.40976,15.63696 c 5.14585,1.59955 8.60335,5.61697 8.60335,11.03225 0,6.64678 -5.56924,12.7538 -12.28505,12.7538 -6.7158,0 -12.16005,-5.38828 -12.16005,-12.03505 0,-5.54986 3.7956,-10.22233 8.90936,-11.83684 z"
         style="fill:none;stroke:#000000;stroke-width:1.00259769;stroke-linecap:round;stroke-linejoin:round;stroke-miterlimit:4;stroke-opacity:1" />
      <path
         inkscape:connector-curvature="0"
         id="path3943"
         d="m 182.78125,824.70593 9.875,1.96875"
         style="fill:none;stroke:#000000;stroke-width:1px;stroke-linecap:butt;stroke-linejoin:miter;stroke-opacity:1" />
      <path
         sodipodi:nodetypes="cc"
         inkscape:connector-curvature="0"
         id="path3945"
         d="m 247.4375,824.67468 -9.46875,1.8125"
         style="fill:none;stroke:#000000;stroke-width:1px;stroke-linecap:butt;stroke-linejoin:miter;stroke-opacity:1" />
      <rect
         y="813.08142"
         x="326.14453"
         height="6.9984927"
         width="7.0426865"
         id="rect3947"
         style="fill:none;stroke:#000000;stroke-width:1.205158;stroke-linecap:round;stroke-linejoin:round;stroke-miterlimit:4;stroke-opacity:1;stroke-dasharray:none" />
      <rect
         y="813.11139"
         x="97.116119"
         height="7.1594563"
         width="7.0710678"
         id="rect3949"
         style="fill:none;stroke:#000000;stroke-width:1;stroke-linecap:round;stroke-linejoin:round;stroke-miterlimit:4;stroke-opacity:1;stroke-dasharray:none" />
      <path
         transform="matrix(0.96917979,0,0,1.0020066,101.61222,-2.763121)"
         d="m 121.26881,900.68781 c 0,2.00143 -1.82035,3.62392 -4.06586,3.62392 -2.24552,0 -4.06586,-1.62249 -4.06586,-3.62392 0,-2.00144 1.82034,-3.62393 4.06586,-3.62393 2.24551,0 4.06586,1.62249 4.06586,3.62393 z"
         sodipodi:ry="3.6239223"
         sodipodi:rx="4.0658641"
         sodipodi:cy="900.68781"
         sodipodi:cx="117.20295"
         id="path3951"
         style="fill:none;stroke:#000000;stroke-width:1;stroke-linecap:round;stroke-linejoin:round;stroke-miterlimit:4;stroke-opacity:1;stroke-dasharray:none"
         sodipodi:type="arc" />
      <path
         transform="matrix(0.9060181,0,0,0.90249101,103.42142,90.354971)"
         d="m 64.700271,927.823 c 0,4.7351 -3.561553,8.57367 -7.954952,8.57367 -4.393398,0 -7.954951,-3.83857 -7.954951,-8.57367 0,-4.73511 3.561553,-8.57367 7.954951,-8.57367 4.393399,0 7.954952,3.83856 7.954952,8.57367 z"
         sodipodi:ry="8.5736694"
         sodipodi:rx="7.9549513"
         sodipodi:cy="927.823"
         sodipodi:cx="56.745319"
         id="path3964"
         style="fill:none;stroke:#000000;stroke-width:1;stroke-linecap:round;stroke-linejoin:round;stroke-miterlimit:4;stroke-opacity:1;stroke-dasharray:none"
         sodipodi:type="arc" />
      <path
         transform="translate(98,-1)"
         d="m 59.750522,928.88367 c 0,1.61091 -1.226758,2.91681 -2.740039,2.91681 -1.513282,0 -2.740039,-1.3059 -2.740039,-2.91681 0,-1.61092 1.226757,-2.91682 2.740039,-2.91682 1.513281,0 2.740039,1.3059 2.740039,2.91682 z"
         sodipodi:ry="2.9168155"
         sodipodi:rx="2.7400389"
         sodipodi:cy="928.88367"
         sodipodi:cx="57.010483"
         id="path3966"
         style="fill:none;stroke:#000000;stroke-width:1;stroke-linecap:round;stroke-linejoin:round;stroke-miterlimit:4;stroke-opacity:1;stroke-dasharray:none"
         sodipodi:type="arc" />
      <path
         sodipodi:type="arc"
         style="fill:none;stroke:#000000;stroke-width:1;stroke-linecap:round;stroke-linejoin:round;stroke-miterlimit:4;stroke-opacity:1;stroke-dasharray:none"
         id="path4018"
         sodipodi:cx="56.745319"
         sodipodi:cy="927.823"
         sodipodi:rx="7.9549513"
         sodipodi:ry="8.5736694"
         d="m 64.700271,927.823 c 0,4.7351 -3.561553,8.57367 -7.954952,8.57367 -4.393398,0 -7.954951,-3.83857 -7.954951,-8.57367 0,-4.73511 3.561553,-8.57367 7.954951,-8.57367 4.393399,0 7.954952,3.83856 7.954952,8.57367 z"
         transform="matrix(0.9060181,0,0,0.90249101,223.89474,89.471088)" />
      <path
         transform="translate(218.47332,-1.8838835)"
         sodipodi:type="arc"
         style="fill:none;stroke:#000000;stroke-width:1;stroke-linecap:round;stroke-linejoin:round;stroke-miterlimit:4;stroke-opacity:1;stroke-dasharray:none"
         id="path4020"
         sodipodi:cx="57.010483"
         sodipodi:cy="928.88367"
         sodipodi:rx="2.7400389"
         sodipodi:ry="2.9168155"
         d="m 59.750522,928.88367 c 0,1.61091 -1.226758,2.91681 -2.740039,2.91681 -1.513282,0 -2.740039,-1.3059 -2.740039,-2.91681 0,-1.61092 1.226757,-2.91682 2.740039,-2.91682 1.513281,0 2.740039,1.3059 2.740039,2.91682 z" />
      <path
         transform="matrix(0.90725889,0,0,0.88818625,109.0047,67.510862)"
         d="m 123.5,610.48718 c 0,3.45178 -2.77024,6.25 -6.1875,6.25 -3.41726,0 -6.1875,-2.79822 -6.1875,-6.25 0,-3.45178 2.77024,-6.25 6.1875,-6.25 3.41726,0 6.1875,2.79822 6.1875,6.25 z"
         sodipodi:ry="6.25"
         sodipodi:rx="6.1875"
         sodipodi:cy="610.48718"
         sodipodi:cx="117.3125"
         id="path4022"
         style="fill:none;stroke:#000000;stroke-width:1;stroke-linecap:round;stroke-linejoin:round;stroke-miterlimit:4;stroke-opacity:1;stroke-dasharray:none"
         sodipodi:type="arc" />
      <path
         id="path4024"
         d="m 230.39603,702.42468 c 0,8.19233 -6.69716,14.83353 -14.95853,14.83353 -8.26136,0 -14.95853,-6.6412 -14.95853,-14.83353 0,-8.19234 6.69717,-14.83353 14.95853,-14.83353 8.26137,0 14.95853,6.64119 14.95853,14.83353 z"
         style="fill:none;stroke:#000000;stroke-width:0.95793903;stroke-linecap:round;stroke-linejoin:round;stroke-miterlimit:4;stroke-opacity:1"
         inkscape:connector-curvature="0" />
      <path
         inkscape:connector-curvature="0"
         id="path4026"
         d="m 215.125,717.11218 0.25,50.75"
         style="fill:none;stroke:#000000;stroke-width:1px;stroke-linecap:butt;stroke-linejoin:miter;stroke-opacity:1" />
      <path
         sodipodi:nodetypes="cc"
         inkscape:connector-curvature="0"
         id="path4028"
         d="m 230.875,702.36218 76.53125,-0.125"
         style="fill:none;stroke:#000000;stroke-width:1px;stroke-linecap:butt;stroke-linejoin:miter;stroke-opacity:1" />
      <path
         inkscape:connector-curvature="0"
         id="path4030"
         d="m 199.875,702.36218 -76.375,-0.5"
         style="fill:none;stroke:#000000;stroke-width:1px;stroke-linecap:butt;stroke-linejoin:miter;stroke-opacity:1" />
      <path
         inkscape:connector-curvature="0"
         id="path4036"
         d="m 215.25,615.11218 0,72"
         style="fill:none;stroke:#000000;stroke-width:1px;stroke-linecap:butt;stroke-linejoin:miter;stroke-opacity:1" />
    </g>
    <g
       style="font-size:28.57390976px;font-style:normal;font-variant:normal;font-weight:normal;font-stretch:normal;text-align:center;line-height:125%;letter-spacing:0px;word-spacing:0px;text-anchor:middle;fill:#000000;fill-opacity:1;stroke:none;font-family:BadBlocks TT;-inkscape-font-specification:BadBlocks TT"
       id="text4197">
      <path
         d="m 116.7196,538.25515 c 0.38097,0.43815 0.57146,1.58111 0.57148,3.42887 -2e-5,0.381 -0.0191,0.72389 -0.0571,1.02866 -0.0572,0.55244 -0.11431,0.91438 -0.17144,1.08581 -0.0953,0.3048 -0.25718,0.53339 -0.48576,0.68578 0.53337,0.53338 0.81911,1.25726 0.85722,2.17161 0.019,0.80008 -0.0476,2.03828 -0.20002,3.71461 -0.3429,1.23821 -0.962,2.0097 -1.85731,2.31449 -0.97152,0.22859 -4.46706,0.24764 -10.48662,0.0571 -0.0381,-0.24764 -0.0572,-0.52386 -0.0572,-0.82865 0,-0.30478 0.0476,-1.07628 0.14287,-2.31448 0.0953,-1.08581 0.1143,-2.00017 0.0572,-2.7431 -0.15239,-2.83833 -0.19049,-5.90526 -0.1143,-9.2008 0.13335,-0.45716 0.31432,-0.73338 0.54291,-0.82864 0.0762,-0.0381 0.4667,-0.0667 1.17153,-0.0857 0.53338,0.0381 1.162,0.0572 1.88588,0.0571 l 2.34306,0 c 3.23836,0.0191 5.19091,0.50483 5.85765,1.45727 m -4.0575,1.91446 c -0.87627,-0.26668 -2.09542,-0.33335 -3.65746,-0.20002 -0.13335,0.0191 -0.20954,0.1905 -0.22859,0.51433 -0.019,0.2286 -0.019,0.60006 0,1.11438 0.0191,0.66674 0.0286,1.0763 0.0286,1.22868 0.32383,-0.0381 0.9334,-0.0571 1.82873,-0.0572 0.76196,0.0191 1.37154,-0.0286 1.82873,-0.14287 0.24763,-0.0571 0.41907,-0.30478 0.51433,-0.74292 0.0762,-0.32383 0.0952,-0.64766 0.0571,-0.97151 0,-0.15238 -0.12382,-0.40002 -0.37146,-0.74292 m 0.48576,6.74344 c -0.49529,-0.17144 -1.96208,-0.20001 -4.40038,-0.0857 l -0.14287,2.74309 c 1.2382,0.0762 2.66689,0.0476 4.28608,-0.0857 0.26669,-0.019 0.4286,-0.30478 0.48576,-0.85722 0.019,-0.45717 0.0381,-0.90483 0.0571,-1.34297 l -0.28574,-0.37146"
         style=""
         id="path4382" />
      <path
         d="m 123.94076,536.74074 0.25717,0.25716 -0.25717,11.68673 6.25769,-0.14287 1.08581,0.0572 c 0.19048,0 0.32382,0.20955 0.40003,0.62863 -1e-5,1.79063 -0.0667,2.91453 -0.20002,3.37172 l -1.08581,0.14287 -10.42947,0 c -0.0762,-0.019 -0.23812,-0.1143 -0.48576,-0.28574 0.0571,-2.53355 0.0476,-4.33371 -0.0286,-5.40047 -0.0191,-2.83833 0.01,-6.21005 0.0857,-10.11517 0.40003,-0.15237 1.13343,-0.25714 2.20019,-0.31431 1.10485,-0.0571 1.83825,-0.019 2.20019,0.1143"
         style=""
         id="path4384" />
      <path
         d="m 145.34619,536.82646 c 0.0571,0.22861 0.32383,0.99058 0.80007,2.28591 0.76196,2.43832 2.1716,6.58153 4.22894,12.42965 0.26667,0.70483 0.40002,1.05724 0.40003,1.05724 -1e-5,0.0952 -0.13336,0.14287 -0.40003,0.14287 -1.16202,0.0381 -2.55262,0.0381 -4.17179,0 -0.13336,-0.60958 -0.52387,-1.79063 -1.17153,-3.54317 -0.0572,-0.13334 -0.45719,-0.20001 -1.20011,-0.20002 -0.60958,1e-5 -1.3906,0.0476 -2.34306,0.14287 -0.0381,0.34289 -0.48576,1.52395 -1.34297,3.54317 -2.68595,-0.0381 -4.09559,-0.0381 -4.22894,0 0.24764,-0.72387 0.75245,-2.10494 1.51442,-4.14322 0.51433,-1.63823 1.31439,-4.10511 2.40021,-7.40064 0.11429,-0.20953 0.43812,-1.0858 0.97151,-2.6288 0.30478,-0.64766 0.53337,-1.23819 0.68577,-1.77158 0.32383,0.0381 0.97151,0.0381 1.94303,0 0.83816,-0.0381 1.47631,-0.01 1.91445,0.0857 m -2.00017,5.71478 c -0.1905,0.62864 -0.48577,1.71444 -0.88579,3.25743 l 1.88587,0.0286 c -0.1905,-1.0858 -0.52386,-2.18113 -1.00008,-3.286"
         style=""
         id="path4386" />
      <path
         d="m 166.25158,537.59795 c 0.0952,0.30481 0.14286,0.64769 0.14287,1.02867 -1e-5,0.83818 -0.19051,1.53347 -0.57148,2.08589 -3.48602,0.13336 -5.62907,0.12383 -6.42913,-0.0286 -0.40004,-0.0571 -0.68578,0.12383 -0.85722,0.5429 -0.0762,0.2286 -0.14287,0.70483 -0.20001,1.4287 -0.0572,0.87627 -0.0191,2.68595 0.11429,5.42904 -0.0381,0.20955 0.0952,0.48576 0.40004,0.82864 0.53337,-0.019 1.37154,10e-6 2.5145,0.0571 1.25724,0.0571 2.15256,0.0857 2.68595,0.0857 0.64766,10e-6 1.20009,-0.0286 1.65728,-0.0857 0.49527,0.53338 0.72386,1.12391 0.68578,1.77158 0.0381,0.17145 0.0571,0.33337 0.0572,0.48576 -2e-5,0.59053 -0.18098,1.01914 -0.54291,1.28583 -2.705,0.19049 -5.9529,0.26668 -9.7437,0.22859 -1.25725,0.15239 -1.88588,-1.99065 -1.88588,-6.42913 0,-1.04771 0.0381,-2.31448 0.1143,-3.80033 0.0762,-1.40964 0.11429,-2.17161 0.11429,-2.28592 -0.019,-0.70481 0.14287,-1.39058 0.48576,-2.05732 0.30479,-0.57146 0.60005,-0.94292 0.88579,-1.11438 0.22859,-0.13333 1.162,-0.21905 2.80024,-0.25717 1.50489,-0.0571 2.74309,-0.0571 3.71461,0 0.28573,0.0191 0.64767,0.01 1.08581,-0.0286 0.53337,-0.019 0.85721,-0.0286 0.97151,-0.0286 0.87626,1e-5 1.47631,0.28575 1.80016,0.85721"
         style=""
         id="path4388" />
      <path
         d="m 175.02868,536.79788 c 0.38098,0.51435 0.5048,0.94296 0.37146,1.28583 0,0.20956 -0.0476,1.98114 -0.14287,5.31475 1.60014,-2.07636 2.77167,-3.74317 3.51459,-5.00044 0.17144,-0.19047 0.52385,-0.69528 1.05724,-1.51441 l 4.62897,-0.0857 c 0.0952,0.19051 0.0952,0.36196 0,0.51434 -0.66673,0.72388 -1.5811,2.00018 -2.74309,3.8289 -1.08582,1.75254 -1.96209,2.94312 -2.6288,3.57174 l -0.22859,0.42861 c 2.62879,3.40982 4.20035,5.32427 4.71469,5.74335 l 1.17153,1.4287 0,0 0.0286,0.0571 c 0.0381,0.0571 -2e-5,0.0952 -0.1143,0.11429 -0.0381,0 -0.20003,-0.01 -0.48576,-0.0286 -0.20955,-0.0191 -0.36195,-0.0191 -0.45718,0 -0.64769,0.13334 -1.87636,0.18097 -3.68603,0.14287 -1.16202,-1.37155 -2.33355,-2.54308 -3.51459,-3.51459 l -1.25726,-1.71444 -0.14287,4.42896 c 0.17144,0.59053 0.17144,0.90484 0,0.94294 l -4.3718,0 c 0.0952,-1.02866 0.13334,-1.86683 0.11429,-2.51451 0.24764,-5.39093 0.33336,-9.69607 0.25717,-12.9154 -0.019,-0.28573 0.0476,-0.47622 0.20001,-0.57148 l 3.71461,0.0571"
         style=""
         id="path4390" />
      <path
         d="m 204.63035,536.74074 c 0.24764,0.0762 0.87626,0.12383 1.88588,0.14287 0.95246,0.0191 1.63823,0.11431 2.05732,0.28574 0.22858,0.0953 0.44765,0.40957 0.6572,0.94293 0.20953,0.51435 0.32383,1.01915 0.34289,1.51442 0.0762,3.20029 0.0286,5.32428 -0.14287,6.37198 -0.15241,0.49529 -1.15249,0.80008 -3.00026,0.91437 -0.13335,0.0381 0.3905,0.64768 1.57157,1.82873 1.71442,1.71444 2.8288,2.85739 3.34314,3.42887 l -0.82864,0.40003 -5.02901,0 c -0.45719,-0.45718 -1.07629,-1.26677 -1.8573,-2.42878 -0.64768,-0.93341 -1.27631,-1.62871 -1.88588,-2.08589 -0.0381,0.30479 -0.0572,0.63815 -0.0572,1.00008 0,0.43814 0.0381,1.00009 0.1143,1.68586 0.0762,0.78102 0.12381,1.26678 0.14287,1.45727 -0.0572,0.1143 -0.2286,0.26669 -0.51433,0.45718 -1.33346,0.0572 -2.42879,0.0857 -3.286,0.0857 -0.47624,0.0571 -0.75245,-0.0857 -0.82865,-0.42861 -0.0571,-3.33362 -0.16192,-7.52446 -0.31431,-12.57252 -0.0952,-1.82872 0.0476,-2.77166 0.42861,-2.82882 0.40003,-0.0571 1.39059,-0.11428 2.97169,-0.17144 1.75252,-0.0571 2.91453,-0.0571 3.48601,0 l 0.74292,0 m 0.42861,3.57174 c -0.43814,0.0191 -0.85722,0.0191 -1.25725,0 -0.47624,-0.0381 -0.74293,-0.0571 -0.80007,-0.0572 -0.38099,1e-5 -0.87627,0.0857 -1.48584,0.25716 0.0381,0.68579 0.11429,1.85732 0.22859,3.51459 0.24763,0.0191 0.44765,0.0286 0.60005,0.0286 0.17144,10e-6 0.34288,-0.019 0.51433,-0.0571 0.19049,-0.0381 0.38098,-0.0571 0.57148,-0.0571 0.19049,10e-6 0.4286,0.0191 0.71435,0.0571 0.60957,0.0762 1.01913,-0.0952 1.22868,-0.51433 0.11428,-0.22858 0.15238,-0.75244 0.11429,-1.57157 -0.0191,-0.80005 -0.0857,-1.23819 -0.20002,-1.3144 l -0.22859,-0.28573"
         style=""
         id="path4392" />
      <path
         d="m 224.81514,536.91218 c 1.18104,0.57149 1.88587,1.28584 2.11447,2.14304 0.019,0.11431 0.0286,0.48577 0.0286,1.11439 -2e-5,1.10487 -0.0381,3.11456 -0.1143,6.02909 -0.0572,1.5049 -0.11431,3.00979 -0.17144,4.51468 -0.0191,1.3525 -0.31433,2.02875 -0.8858,2.02875 0.0381,0 -0.67626,0.019 -2.14304,0.0571 -1.4668,0.0381 -2.73358,0.0571 -3.80033,0.0571 -1.52395,0 -2.71452,-0.0381 -3.57174,-0.11429 -0.40003,0.019 -1.09533,0 -2.08589,-0.0571 -0.43814,-0.0381 -0.72388,-0.31431 -0.85722,-0.82864 -0.13334,-0.60958 -0.19049,-1.95255 -0.17144,-4.02893 0.0381,-3.5241 0.0762,-5.67667 0.11429,-6.4577 0.0953,-2.68593 0.30479,-4.11463 0.62863,-4.28609 0.45718,-0.15237 0.90484,-0.2381 1.34297,-0.25716 0.78102,-0.0381 1.20963,-0.0667 1.28583,-0.0857 l 8.28643,0.17144 m -6.74344,4.37181 c -0.32384,0.0953 -0.49529,0.1524 -0.51433,0.17144 -0.019,10e-6 -0.1143,0.18098 -0.28574,0.54291 0.0571,3.06694 0.0571,5.16236 0,6.28626 -0.019,0.28574 0.0762,0.48576 0.28574,0.60005 2.24781,0.0762 3.83842,0.0571 4.77184,-0.0571 0.13334,-0.019 0.24763,-0.56195 0.34289,-1.62871 0.0762,-0.97151 0.10476,-2.18114 0.0857,-3.62889 -0.0381,-1.44773 -0.1143,-2.16208 -0.22859,-2.14304 l -4.45753,-0.14287"
         style=""
         id="path4394" />
      <path
         d="m 243.21139,537.59795 c 0.0952,0.30481 0.14285,0.64769 0.14287,1.02867 -2e-5,0.83818 -0.19051,1.53347 -0.57148,2.08589 -3.48603,0.13336 -5.62907,0.12383 -6.42913,-0.0286 -0.40004,-0.0571 -0.68578,0.12383 -0.85722,0.5429 -0.0762,0.2286 -0.14287,0.70483 -0.20002,1.4287 -0.0572,0.87627 -0.0191,2.68595 0.1143,5.42904 -0.0381,0.20955 0.0952,0.48576 0.40003,0.82864 0.53338,-0.019 1.37155,10e-6 2.51451,0.0571 1.25724,0.0571 2.15256,0.0857 2.68595,0.0857 0.64766,10e-6 1.20009,-0.0286 1.65728,-0.0857 0.49527,0.53338 0.72386,1.12391 0.68578,1.77158 0.0381,0.17145 0.0571,0.33337 0.0571,0.48576 -10e-6,0.59053 -0.18098,1.01914 -0.5429,1.28583 -2.70501,0.19049 -5.9529,0.26668 -9.7437,0.22859 -1.25726,0.15239 -1.88588,-1.99065 -1.88588,-6.42913 0,-1.04771 0.0381,-2.31448 0.11429,-3.80033 0.0762,-1.40964 0.1143,-2.17161 0.1143,-2.28592 -0.019,-0.70481 0.14287,-1.39058 0.48576,-2.05732 0.30478,-0.57146 0.60005,-0.94292 0.88579,-1.11438 0.22859,-0.13333 1.162,-0.21905 2.80024,-0.25717 1.50489,-0.0571 2.74309,-0.0571 3.71461,0 0.28573,0.0191 0.64767,0.01 1.08581,-0.0286 0.53337,-0.019 0.85721,-0.0286 0.97151,-0.0286 0.87626,1e-5 1.47631,0.28575 1.80016,0.85721"
         style=""
         id="path4396" />
      <path
         d="m 251.98849,536.79788 c 0.38098,0.51435 0.5048,0.94296 0.37146,1.28583 0,0.20956 -0.0476,1.98114 -0.14287,5.31475 1.60014,-2.07636 2.77166,-3.74317 3.51459,-5.00044 0.17144,-0.19047 0.52385,-0.69528 1.05724,-1.51441 l 4.62897,-0.0857 c 0.0952,0.19051 0.0952,0.36196 0,0.51434 -0.66674,0.72388 -1.5811,2.00018 -2.74309,3.8289 -1.08582,1.75254 -1.96209,2.94312 -2.6288,3.57174 l -0.22859,0.42861 c 2.62878,3.40982 4.20035,5.32427 4.71469,5.74335 l 1.17153,1.4287 0,0 0.0286,0.0571 c 0.0381,0.0571 -10e-6,0.0952 -0.11429,0.11429 -0.0381,0 -0.20003,-0.01 -0.48576,-0.0286 -0.20955,-0.0191 -0.36195,-0.0191 -0.45718,0 -0.64769,0.13334 -1.87636,0.18097 -3.68603,0.14287 -1.16202,-1.37155 -2.33355,-2.54308 -3.5146,-3.51459 l -1.25725,-1.71444 -0.14287,4.42896 c 0.17144,0.59053 0.17144,0.90484 0,0.94294 l -4.37181,0 c 0.0952,-1.02866 0.13335,-1.86683 0.1143,-2.51451 0.24764,-5.39093 0.33336,-9.69607 0.25717,-12.9154 -0.019,-0.28573 0.0476,-0.47622 0.20001,-0.57148 l 3.71461,0.0571"
         style=""
         id="path4398" />
      <path
         d="m 285.90482,537.59795 c 0.0952,0.30481 0.14286,0.64769 0.14287,1.02867 -10e-6,0.83818 -0.1905,1.53347 -0.57148,2.08589 -3.48602,0.13336 -5.62906,0.12383 -6.42913,-0.0286 -0.40004,-0.0571 -0.68577,0.12383 -0.85721,0.5429 -0.0762,0.2286 -0.14288,0.70483 -0.20002,1.4287 -0.0571,0.87627 -0.019,2.68595 0.1143,5.42904 -0.0381,0.20955 0.0952,0.48576 0.40003,0.82864 0.53337,-0.019 1.37154,10e-6 2.5145,0.0571 1.25725,0.0571 2.15256,0.0857 2.68595,0.0857 0.64767,10e-6 1.20009,-0.0286 1.65729,-0.0857 0.49527,0.53338 0.72386,1.12391 0.68577,1.77158 0.0381,0.17145 0.0571,0.33337 0.0572,0.48576 -1e-5,0.59053 -0.18098,1.01914 -0.5429,1.28583 -2.70501,0.19049 -5.95291,0.26668 -9.74371,0.22859 -1.25725,0.15239 -1.88588,-1.99065 -1.88588,-6.42913 0,-1.04771 0.0381,-2.31448 0.1143,-3.80033 0.0762,-1.40964 0.1143,-2.17161 0.1143,-2.28592 -0.019,-0.70481 0.14287,-1.39058 0.48575,-2.05732 0.30479,-0.57146 0.60005,-0.94292 0.88579,-1.11438 0.22859,-0.13333 1.16201,-0.21905 2.80025,-0.25717 1.50488,-0.0571 2.74308,-0.0571 3.7146,0 0.28574,0.0191 0.64767,0.01 1.08581,-0.0286 0.53337,-0.019 0.85721,-0.0286 0.97152,-0.0286 0.87625,1e-5 1.4763,0.28575 1.80015,0.85721"
         style=""
         id="path4400" />
      <path
         d="m 294.96767,536.85503 c -0.0572,1.71445 -0.0667,3.39079 -0.0286,5.02901 0.0381,2.60976 0.0571,6.00053 0.0571,10.17231 0,0.30479 -0.0857,0.49528 -0.25717,0.57148 -0.22859,0.0381 -0.44766,0.0762 -0.6572,0.1143 l -3.51459,-0.0857 c -0.0952,-1.54298 -0.15239,-6.37197 -0.17144,-14.48697 0.0381,-0.36192 0.0476,-0.75243 0.0286,-1.17153 0.34289,-0.17143 0.88579,-0.25715 1.62872,-0.25716 0.34288,1e-5 0.89531,0.0286 1.65728,0.0857 0.62863,0.0381 1.04771,0.0476 1.25726,0.0286"
         style=""
         id="path4402" />
      <path
         d="m 312.9277,536.74074 c 0.0571,0.0762 0.0952,0.16193 0.1143,0.25716 0.0952,0.0953 0.13333,0.60959 0.1143,1.54299 -0.0191,1.39061 -0.0286,2.09544 -0.0286,2.11447 -1.25726,0.15241 -2.8955,0.18098 -4.91471,0.0857 0.11429,0.40005 0.20001,4.04798 0.25716,10.94381 0,0.0952 0.019,0.28574 0.0571,0.57148 0.019,0.17144 0.01,0.29526 -0.0286,0.37146 -0.0381,0.0571 -0.1524,0.0762 -0.34289,0.0571 -0.41909,-0.019 -1.72396,0 -3.91462,0.0571 l 0,-0.42861 c -1e-5,-5.33379 -0.0476,-9.0865 -0.14287,-11.25812 l -0.42861,-0.25717 -4.17179,0 c -0.1524,-0.11428 -0.22859,-0.53336 -0.22859,-1.25725 0,-0.43812 0.0381,-0.96197 0.11429,-1.57156 l -0.11429,-0.45719 c -0.0381,-0.38097 0.12382,-0.60003 0.48575,-0.6572 0.47623,0.0191 0.95246,0.0286 1.4287,0.0286 2.62879,-0.0762 6.54341,-0.12381 11.74387,-0.14287"
         style=""
         id="path4404" />
      <path
         d="m 331.31546,536.74074 c 0.0952,0.0381 0.13333,0.10478 0.11429,0.20001 -0.0381,0.17146 -0.0572,0.27623 -0.0571,0.31432 -0.78104,1.48585 -1.60968,2.99075 -2.48593,4.51468 -0.32385,0.55243 -2.45737,4.20989 -6.40056,10.97238 l -4.34323,-0.0571 3.65746,-6.572 c -0.62864,-0.87626 -2.39069,-3.82889 -5.28618,-8.85791 l 0.0857,-0.22859 c 2.40021,-0.13333 3.78128,-0.15238 4.14322,-0.0571 0.87626,1.60015 1.9335,3.36221 3.1717,5.28617 0.47623,-0.62861 0.99056,-1.5144 1.543,-2.65737 0.60956,-1.21914 1.13342,-2.14303 1.57156,-2.77167 2.60974,-0.0952 4.03843,-0.12381 4.28609,-0.0857"
         style=""
         id="path4406" />
      <path
         d="m 205.98539,573.71538 c 0.40002,0.36195 0.61908,0.8477 0.6572,1.45727 -2e-5,0.0381 -0.0191,0.59054 -0.0572,1.65728 -0.0381,0.91438 -0.381,1.67635 -1.02866,2.28592 -0.62864,0.47624 -1.25727,0.94294 -1.88588,1.40012 -0.0381,0.0381 -0.54292,0.36194 -1.51442,0.97151 -0.85722,0.55244 -2.01923,1.48585 -3.48602,2.80024 0,0.0571 0.0381,0.12383 0.1143,0.20002 0.0762,0.0762 0.11429,0.12382 0.1143,0.14287 0.9715,-0.0952 2.27638,-0.13334 3.91462,-0.1143 1.92397,0.0191 3.22884,0.01 3.91463,-0.0286 0.17143,-0.0381 0.25715,0.29527 0.25716,1.00009 -1e-5,0.26669 -0.0191,0.70482 -0.0571,1.3144 -0.0191,0.51433 -0.0191,0.82864 0,0.94294 0.0571,0.45718 -0.1905,0.69529 -0.74292,0.71434 -1.23821,0.0571 -3.11456,0.0571 -5.62906,0 -2.76215,-0.0381 -5.04806,-0.0381 -6.85774,0 0,0 -0.17144,0.01 -0.51433,0.0286 -0.0571,0 -0.13334,-0.0857 -0.22859,-0.25717 -0.0762,-0.19049 -0.0952,-1.65728 -0.0572,-4.40038 0,-0.20954 0.68578,-0.89531 2.05733,-2.05732 0.87626,-0.74292 1.743,-1.41916 2.60022,-2.02875 0.51433,-0.36193 1.03818,-0.71434 1.57157,-1.05723 1.18104,-0.89531 1.7049,-1.47631 1.57156,-1.74301 -0.17145,-0.30478 -0.2667,-0.4667 -0.28574,-0.48576 -0.019,-0.019 -0.25717,-0.0762 -0.71434,-0.17144 l -6.1434,0.14287 c -0.34288,-0.24763 -0.51433,-0.9715 -0.51433,-2.17162 0,-0.8191 0.0476,-1.38106 0.14287,-1.68586 2.03827,-0.19048 4.79089,-0.22858 8.25786,-0.1143 1.58108,0.0572 2.46687,0.10479 2.65738,0.14287 0.57146,0.11432 1.20009,0.48578 1.88588,1.11439"
         style=""
         id="path4408" />
      <path
         d="m 222.05821,573.37249 c 0.15238,0.17146 0.25715,0.80008 0.31431,1.88588 0.0381,0.87628 0.0667,1.74302 0.0857,2.60022 0.11429,1.31441 0.0857,3.84796 -0.0857,7.60066 -0.0762,1.73349 -0.36195,2.6669 -0.85721,2.80025 -0.26671,0.0762 -0.80009,0.14287 -1.60014,0.20001 -0.78103,0.0571 -1.91446,0.0762 -3.4003,0.0571 -2.60975,-0.0381 -4.14322,-0.0571 -4.6004,-0.0571 -0.89532,0 -1.50489,-0.0381 -1.82873,-0.11429 -0.47623,-0.1143 -0.75244,-0.36194 -0.82864,-0.74292 -0.19049,-1.12391 -0.28574,-2.95264 -0.28574,-5.48619 0,-0.43813 0.0476,-2.35258 0.14287,-5.74336 0.0572,-1.92396 0.27621,-3.00977 0.6572,-3.25743 0.53338,-0.36192 1.06676,-0.57146 1.60014,-0.62862 0.22859,-0.019 1.33344,-0.0286 3.31457,-0.0286 3.61935,2e-5 5.66715,0.0667 6.14339,0.20002 0.55242,0.15241 0.96198,0.39053 1.22868,0.71435 m -4.62897,3.00026 c 0.28573,-0.019 -0.50482,-0.0381 -2.37164,-0.0571 -1.20011,-0.019 -1.91445,0.0572 -2.14304,0.22859 -0.32384,0.3429 -0.45719,0.87628 -0.40004,1.60014 0,0.0572 0.0381,1.53348 0.1143,4.42896 0.0381,1.4287 0.26669,2.14305 0.68577,2.14304 0.57148,-0.019 1.38107,-0.01 2.42879,0.0286 0.43812,0.019 1.24772,-0.0476 2.42878,-0.20002 0.49527,0.0952 0.74291,-1.10485 0.74292,-3.60031 -1e-5,-1.84777 -0.0667,-3.19075 -0.20002,-4.02893 -0.1143,-0.40002 -0.54291,-0.58099 -1.28582,-0.5429"
         style=""
         id="path4410" />
      <path
         d="m 230.77236,574.94405 -0.17144,13.40117 c -1.00962,0 -1.93351,0.0381 -2.77167,0.11429 -0.78103,0.0762 -1.27631,0.01 -1.48585,-0.20001 l -0.0571,-10.85809 c -0.59053,0.11431 -1.03819,0.17145 -1.34298,0.17144 -0.28574,10e-6 -0.41908,-0.0476 -0.40003,-0.14287 -0.0762,-1.48583 -0.0952,-2.54306 -0.0572,-3.1717 l 2.11447,-1.80016 4.31466,0.14287 -0.14287,2.34306"
         style=""
         id="path4412" />
      <path
         d="m 236.74207,572.45812 c 0.0952,0.55245 0.0952,1.91447 0,4.08607 -0.0572,1.06677 0.10477,1.6192 0.48576,1.65729 0.59052,-0.0381 1.91444,-0.0381 3.97177,0 l -0.0572,-0.6572 c 0.13334,-1.29534 0.20001,-2.905 0.20002,-4.82899 0.13334,0.0381 0.4667,2e-5 1.00009,-0.1143 l 3.25742,-0.0286 c 0.019,2.68596 0.01,7.83878 -0.0286,15.45849 -10e-6,0.0571 -0.0667,0.20001 -0.20002,0.4286 l -4.02892,-0.0571 c -1e-5,-0.1524 -0.0667,-0.33337 -0.20002,-0.54291 -0.0381,-0.80007 -0.0381,-1.73348 0,-2.80024 0.0571,-1.06676 0.0571,-2.02874 0,-2.88597 l -2.14304,-0.0857 c -1.20011,0.1143 -2.76215,0.0762 -4.68612,-0.11429 -0.97151,-0.0952 -1.43822,-0.99056 -1.40012,-2.68595 l 0.14287,-6.77202 c 1.10485,2e-5 2.33353,-0.019 3.68603,-0.0571"
         style=""
         id="path4414" />
    </g>
    <path
       sodipodi:type="star"
       style="fill:none;stroke:#000000;stroke-width:0.42049858;stroke-linecap:round;stroke-linejoin:round;stroke-miterlimit:4;stroke-opacity:1;stroke-dasharray:none"
       id="path4214"
       sodipodi:sides="5"
       sodipodi:cx="464"
       sodipodi:cy="-96.024078"
       sodipodi:r1="62.681736"
       sodipodi:r2="50.510769"
       sodipodi:arg1="0.59242735"
       sodipodi:arg2="1.2197915"
       inkscape:flatsided="false"
       inkscape:rounded="0"
       inkscape:randomized="0"
       d="m 516,-61.024078 -34.6323,12.43101 -34.58579,12.839524 -22.52457,-29.095881 -22.89871,-28.925415 20.71136,-30.41325 20.43361,-30.71642 35.32488,10.29946 35.52738,9.94163 1.12063,36.778665 z"
       transform="matrix(4.466679,1.6342501,-1.6342501,4.466679,-2013.2703,373.43948)" />
  </g>
</svg>
